<svg width="14" height="14" viewBox="0 0 14 14" fill="none" xmlns="http://www.w3.org/2000/svg">
<path d="M6.90562 0C6.90187 0 6.89436 0 6.88311 0C3.08708 0 0 3.08708 0 6.88311C0 8.43228 0.528893 9.93644 1.49665 11.148L0.495134 13.4774C0.412612 13.6687 0.502636 13.89 0.690187 13.9688C0.757705 13.9988 0.832725 14.0063 0.903994 13.995L4.57624 13.3499C5.31144 13.6162 6.08415 13.7512 6.86436 13.7475C10.6604 13.7475 13.7475 10.6604 13.7475 6.86436C13.755 3.07958 10.6904 0.00375101 6.90562 0ZM4.54998 5.49899H6.57553C6.78183 5.49899 6.95063 5.66778 6.95063 5.87409C6.95063 6.08039 6.78183 6.24919 6.57553 6.24919H4.54998C4.34367 6.24919 4.17488 6.08039 4.17488 5.87409C4.17488 5.66778 4.34367 5.49899 4.54998 5.49899ZM9.20124 8.1247H4.54998C4.34367 8.1247 4.17488 7.9559 4.17488 7.74959C4.17488 7.54329 4.34367 7.37449 4.54998 7.37449H9.20124C9.40754 7.37449 9.57634 7.54329 9.57634 7.74959C9.57634 7.9559 9.40754 8.1247 9.20124 8.1247Z" fill="#07003B"/>
</svg>
