<svg width="52" height="53" viewBox="0 0 52 53" fill="none" xmlns="http://www.w3.org/2000/svg">
<path d="M0.782715 28.4336C0.782715 14.3386 12.209 2.91232 26.304 2.91232C40.399 2.91232 51.8252 14.3386 51.8252 28.4336V30.2381H0.782715V28.4336Z" fill="white"/>
<path d="M27.0771 39.7763C27.0771 47.0374 21.1909 52.9236 13.9298 52.9236C6.66878 52.9236 0.782531 47.0374 0.782531 39.7763L0.78253 33.8472L27.0771 33.8472L27.0771 39.7763Z" fill="white"/>
<path d="M51.8252 40.5497C51.8252 47.3836 46.2852 52.9236 39.4513 52.9236C32.6173 52.9236 27.0773 47.3836 27.0773 40.5497L27.0773 33.8472L51.8252 33.8472L51.8252 40.5497Z" fill="white"/>
<circle cx="17.0235" cy="16.5752" r="4.89802" fill="#27B045"/>
<circle cx="35.0689" cy="16.5752" r="4.89802" fill="#27B045"/>
<circle cx="48.989" cy="3.17009" r="2.83569" fill="white"/>
<circle cx="3.6189" cy="3.17009" r="2.83569" fill="white"/>
</svg>
