<svg width="28" height="28" viewBox="0 0 28 28" fill="none" xmlns="http://www.w3.org/2000/svg">
<path d="M24.1111 1H3.88889C2.2934 1 1 2.2934 1 3.88889V24.1111C1 25.7066 2.2934 27 3.88889 27H24.1111C25.7066 27 27 25.7066 27 24.1111V3.88889C27 2.2934 25.7066 1 24.1111 1Z" stroke="#3C50E0" stroke-width="2" stroke-linecap="round" stroke-linejoin="round"/>
<path d="M8.9445 11.1111C10.1411 11.1111 11.1112 10.1411 11.1112 8.94444C11.1112 7.74782 10.1411 6.77777 8.9445 6.77777C7.74788 6.77777 6.77783 7.74782 6.77783 8.94444C6.77783 10.1411 7.74788 11.1111 8.9445 11.1111Z" stroke="#3C50E0" stroke-width="2" stroke-linecap="round" stroke-linejoin="round"/>
<path d="M26.9998 18.3333L19.7776 11.1111L3.88867 27" stroke="#3C50E0" stroke-width="2" stroke-linecap="round" stroke-linejoin="round"/>
</svg>
