<svg width="52" height="53" viewBox="0 0 52 53" fill="none" xmlns="http://www.w3.org/2000/svg">
<path d="M0.148926 28.4336C0.148926 14.3386 11.5752 2.91234 25.6702 2.91234C39.7652 2.91234 51.1914 14.3386 51.1914 28.4336V30.2381H0.148926V28.4336Z" fill="white"/>
<path d="M26.4438 39.7763C26.4438 47.0374 20.5576 52.9237 13.2965 52.9237C6.03548 52.9237 0.149231 47.0374 0.14923 39.7764L0.14923 33.8472L26.4438 33.8472L26.4438 39.7763Z" fill="white"/>
<path d="M51.1919 40.5497C51.1919 47.3837 45.6519 52.9237 38.818 52.9237C31.984 52.9237 26.444 47.3837 26.444 40.5497L26.444 33.8472L51.1919 33.8472L51.1919 40.5497Z" fill="white"/>
<circle cx="16.3897" cy="16.5752" r="4.89802" fill="#8DB027"/>
<circle cx="34.4351" cy="16.5752" r="4.89802" fill="#8DB027"/>
<circle cx="48.3557" cy="3.17011" r="2.83569" fill="white"/>
<circle cx="2.98511" cy="3.17014" r="2.83569" fill="white"/>
</svg>
