<svg width="186" height="32" viewBox="0 0 186 32" fill="none" xmlns="http://www.w3.org/2000/svg">
<path d="M0 16.8971C0 8.58843 6.73548 1.85295 15.0441 1.85295C23.3528 1.85295 30.0882 8.58843 30.0882 16.8971V17.9608H0V16.8971Z" fill="#3C50E0"/>
<path d="M15.5 23.5833C15.5 27.8635 12.0302 31.3333 7.75 31.3333C3.46979 31.3333 1.66072e-06 27.8636 1.35649e-06 23.5833L1.10806e-06 20.0882L15.5 20.0882L15.5 23.5833Z" fill="#3C50E0"/>
<path d="M30.0882 24.0392C30.0882 28.0677 26.8225 31.3333 22.7941 31.3333C18.7657 31.3333 15.5 28.0677 15.5 24.0392L15.5 20.0882L30.0882 20.0882L30.0882 24.0392Z" fill="#3C50E0"/>
<circle cx="9.57353" cy="9.90688" r="2.88725" fill="white"/>
<circle cx="20.2108" cy="9.90688" r="2.88725" fill="white"/>
<circle cx="28.4167" cy="2.00491" r="1.67157" fill="#3C50E0"/>
<circle cx="1.67157" cy="2.00491" r="1.67157" fill="#3C50E0"/>
<path d="M54.6633 30.2256C52.5581 30.2256 50.6248 29.7315 48.8633 28.7433C47.1019 27.7552 45.7056 26.3911 44.6744 24.6511C43.6433 22.8896 43.1278 20.9026 43.1278 18.69C43.1278 16.4989 43.6433 14.5333 44.6744 12.7933C45.7056 11.0319 47.1019 9.65704 48.8633 8.66889C50.6248 7.68074 52.5581 7.18667 54.6633 7.18667C56.79 7.18667 58.7233 7.68074 60.4633 8.66889C62.2248 9.65704 63.6104 11.0319 64.62 12.7933C65.6511 14.5333 66.1667 16.4989 66.1667 18.69C66.1667 20.9026 65.6511 22.8896 64.62 24.6511C63.6104 26.3911 62.2248 27.7552 60.4633 28.7433C58.7019 29.7315 56.7685 30.2256 54.6633 30.2256ZM54.6633 26.1978C56.0167 26.1978 57.2089 25.897 58.24 25.2956C59.2711 24.6726 60.0767 23.7919 60.6567 22.6533C61.2367 21.5148 61.5267 20.1937 61.5267 18.69C61.5267 17.1863 61.2367 15.8759 60.6567 14.7589C60.0767 13.6204 59.2711 12.7504 58.24 12.1489C57.2089 11.5474 56.0167 11.2467 54.6633 11.2467C53.31 11.2467 52.107 11.5474 51.0544 12.1489C50.0233 12.7504 49.2178 13.6204 48.6378 14.7589C48.0578 15.8759 47.7678 17.1863 47.7678 18.69C47.7678 20.1937 48.0578 21.5148 48.6378 22.6533C49.2178 23.7919 50.0233 24.6726 51.0544 25.2956C52.107 25.897 53.31 26.1978 54.6633 26.1978Z" fill="#07003B"/>
<path d="M91.6917 11.8911C93.8828 11.8911 95.6443 12.5678 96.9761 13.9211C98.3295 15.253 99.0061 17.1219 99.0061 19.5278V30H94.495V20.14C94.495 18.7437 94.1406 17.6804 93.4317 16.95C92.7228 16.1981 91.7561 15.8222 90.5317 15.8222C89.3073 15.8222 88.3298 16.1981 87.5995 16.95C86.8906 17.6804 86.5361 18.7437 86.5361 20.14V30H82.025V20.14C82.025 18.7437 81.6706 17.6804 80.9617 16.95C80.2528 16.1981 79.2861 15.8222 78.0617 15.8222C76.8158 15.8222 75.8276 16.1981 75.0973 16.95C74.3884 17.6804 74.0339 18.7437 74.0339 20.14V30H69.5228V12.1489H74.0339V14.3078C74.6139 13.5559 75.355 12.9652 76.2573 12.5356C77.181 12.1059 78.1906 11.8911 79.2861 11.8911C80.6824 11.8911 81.9284 12.1919 83.0239 12.7933C84.1195 13.3733 84.968 14.2111 85.5695 15.3067C86.1495 14.2756 86.9873 13.4485 88.0828 12.8256C89.1998 12.2026 90.4028 11.8911 91.6917 11.8911Z" fill="#07003B"/>
<path d="M113.179 11.8911C115.306 11.8911 117.024 12.5678 118.335 13.9211C119.645 15.253 120.3 17.1219 120.3 19.5278V30H115.789V20.14C115.789 18.7222 115.435 17.6374 114.726 16.8856C114.017 16.1122 113.05 15.7256 111.826 15.7256C110.58 15.7256 109.592 16.1122 108.861 16.8856C108.152 17.6374 107.798 18.7222 107.798 20.14V30H103.287V12.1489H107.798V14.3722C108.4 13.5989 109.162 12.9974 110.086 12.5678C111.031 12.1167 112.062 11.8911 113.179 11.8911Z" fill="#07003B"/>
<path d="M126.878 10.0222C126.083 10.0222 125.417 9.77519 124.88 9.28111C124.365 8.76556 124.107 8.13185 124.107 7.38C124.107 6.62815 124.365 6.00519 124.88 5.51111C125.417 4.99556 126.083 4.73778 126.878 4.73778C127.673 4.73778 128.328 4.99556 128.843 5.51111C129.38 6.00519 129.649 6.62815 129.649 7.38C129.649 8.13185 129.38 8.76556 128.843 9.28111C128.328 9.77519 127.673 10.0222 126.878 10.0222ZM129.101 12.1489V30H124.59V12.1489H129.101Z" fill="#07003B"/>
<path d="M138.069 14.7589C138.649 13.8996 139.444 13.2015 140.454 12.6644C141.485 12.1274 142.656 11.8589 143.966 11.8589C145.491 11.8589 146.866 12.2348 148.09 12.9867C149.336 13.7385 150.314 14.8126 151.023 16.2089C151.753 17.5837 152.118 19.1841 152.118 21.01C152.118 22.8359 151.753 24.4578 151.023 25.8756C150.314 27.2719 149.336 28.3567 148.09 29.13C146.866 29.9033 145.491 30.29 143.966 30.29C142.634 30.29 141.463 30.0322 140.454 29.5167C139.466 28.9796 138.671 28.2922 138.069 27.4544V30H133.558V6.15556H138.069V14.7589ZM147.51 21.01C147.51 19.9359 147.285 19.0122 146.834 18.2389C146.404 17.4441 145.824 16.8426 145.094 16.4344C144.385 16.0263 143.612 15.8222 142.774 15.8222C141.957 15.8222 141.184 16.037 140.454 16.4667C139.745 16.8748 139.165 17.4763 138.714 18.2711C138.284 19.0659 138.069 20.0004 138.069 21.0744C138.069 22.1485 138.284 23.083 138.714 23.8778C139.165 24.6726 139.745 25.2848 140.454 25.7144C141.184 26.1226 141.957 26.3267 142.774 26.3267C143.612 26.3267 144.385 26.1119 145.094 25.6822C145.824 25.2526 146.404 24.6404 146.834 23.8456C147.285 23.0507 147.51 22.1056 147.51 21.01Z" fill="#07003B"/>
<path d="M163.323 30.29C161.604 30.29 160.058 29.9141 158.683 29.1622C157.308 28.3889 156.223 27.3041 155.429 25.9078C154.655 24.5115 154.269 22.9004 154.269 21.0744C154.269 19.2485 154.666 17.6374 155.461 16.2411C156.277 14.8448 157.383 13.7707 158.78 13.0189C160.176 12.2456 161.733 11.8589 163.452 11.8589C165.17 11.8589 166.728 12.2456 168.124 13.0189C169.52 13.7707 170.616 14.8448 171.411 16.2411C172.227 17.6374 172.635 19.2485 172.635 21.0744C172.635 22.9004 172.216 24.5115 171.379 25.9078C170.562 27.3041 169.445 28.3889 168.027 29.1622C166.631 29.9141 165.063 30.29 163.323 30.29ZM163.323 26.3589C164.139 26.3589 164.902 26.1656 165.611 25.7789C166.341 25.3707 166.921 24.7693 167.351 23.9744C167.78 23.1796 167.995 22.213 167.995 21.0744C167.995 19.3774 167.544 18.0778 166.642 17.1756C165.761 16.2519 164.676 15.79 163.387 15.79C162.099 15.79 161.014 16.2519 160.133 17.1756C159.274 18.0778 158.844 19.3774 158.844 21.0744C158.844 22.7715 159.263 24.0819 160.101 25.0056C160.96 25.9078 162.034 26.3589 163.323 26.3589Z" fill="#07003B"/>
<path d="M181.196 15.8544V24.49C181.196 25.0915 181.336 25.5319 181.615 25.8111C181.916 26.0689 182.41 26.1978 183.098 26.1978H185.192V30H182.356C178.554 30 176.653 28.1526 176.653 24.4578V15.8544H174.526V12.1489H176.653V7.73444H181.196V12.1489H185.192V15.8544H181.196Z" fill="#07003B"/>
</svg>
