<svg width="14" height="14" viewBox="0 0 14 14" fill="none" xmlns="http://www.w3.org/2000/svg">
<path d="M5.09091 0H1.27274C0.570788 0 0 0.570788 0 1.27274V5.09091C0 5.79283 0.570788 6.36365 1.27274 6.36365H5.09091C5.79283 6.36365 6.36365 5.79286 6.36365 5.09091V1.27274C6.36362 0.570788 5.79283 0 5.09091 0Z" fill="#07003B"/>
<path d="M12.7271 1.52588e-05H8.90897C8.20702 1.52588e-05 7.63623 0.570803 7.63623 1.27275V5.09093C7.63623 5.79285 8.20702 6.36366 8.90897 6.36366H12.7271C13.4291 6.36366 13.9999 5.79287 13.9999 5.09093V1.27275C13.9998 0.570803 13.4291 1.52588e-05 12.7271 1.52588e-05Z" fill="#07003B"/>
<path d="M5.09091 7.63637H1.27274C0.570788 7.63637 0 8.20716 0 8.9091V12.7273C0 13.4292 0.570788 14 1.27274 14H5.09091C5.79283 14 6.36365 13.4292 6.36365 12.7273V8.9091C6.36362 8.20716 5.79283 7.63637 5.09091 7.63637Z" fill="#07003B"/>
<path d="M12.4092 10.1818H11.4547V9.22726C11.4547 9.05139 11.3123 8.90907 11.1365 8.90907H10.5001C10.3242 8.90907 10.1819 9.05139 10.1819 9.22726V10.1818H9.22737C9.0515 10.1818 8.90918 10.3241 8.90918 10.5V11.1364C8.90918 11.3122 9.0515 11.4545 9.22737 11.4545H10.1819V12.4091C10.1819 12.585 10.3242 12.7273 10.5001 12.7273H11.1365C11.3123 12.7273 11.4547 12.585 11.4547 12.4091V11.4545H12.4092C12.5851 11.4545 12.7274 11.3122 12.7274 11.1364V10.5C12.7274 10.3241 12.5851 10.1818 12.4092 10.1818Z" fill="#07003B"/>
</svg>
