<svg width="52" height="53" viewBox="0 0 52 53" fill="none" xmlns="http://www.w3.org/2000/svg">
<path d="M0.306152 28.4336C0.306152 14.3386 11.7324 2.91232 25.8274 2.91232C39.9224 2.91232 51.3486 14.3386 51.3486 28.4336V30.2381H0.306152V28.4336Z" fill="white"/>
<path d="M26.6011 39.7763C26.6011 47.0374 20.7148 52.9236 13.4538 52.9236C6.19271 52.9236 0.306457 47.0374 0.306457 39.7763L0.306456 33.8472L26.6011 33.8472L26.6011 39.7763Z" fill="white"/>
<path d="M51.3486 40.5497C51.3486 47.3836 45.8086 52.9236 38.9747 52.9236C32.1408 52.9236 26.6008 47.3836 26.6008 40.5497L26.6008 33.8472L51.3486 33.8472L51.3486 40.5497Z" fill="white"/>
<circle cx="16.5469" cy="16.5752" r="4.89802" fill="#FF971D"/>
<circle cx="34.5924" cy="16.5752" r="4.89802" fill="#FF971D"/>
<circle cx="48.5129" cy="3.17009" r="2.83569" fill="white"/>
<circle cx="3.14185" cy="3.17012" r="2.83569" fill="white"/>
</svg>
