<svg width="52" height="53" viewBox="0 0 52 53" fill="none" xmlns="http://www.w3.org/2000/svg">
<path d="M0.148926 28.4336C0.148926 14.3386 11.5752 2.91232 25.6702 2.91232C39.7652 2.91232 51.1914 14.3386 51.1914 28.4336V30.2381H0.148926V28.4336Z" fill="white"/>
<path d="M26.4438 39.7763C26.4438 47.0374 20.5576 52.9236 13.2965 52.9236C6.03548 52.9236 0.149231 47.0374 0.14923 39.7763L0.14923 33.8472L26.4438 33.8472L26.4438 39.7763Z" fill="white"/>
<path d="M51.1919 40.5497C51.1919 47.3836 45.6519 52.9236 38.818 52.9236C31.984 52.9236 26.444 47.3836 26.444 40.5497L26.444 33.8472L51.1919 33.8472L51.1919 40.5497Z" fill="white"/>
<circle cx="16.3897" cy="16.5752" r="4.89802" fill="#FE556F"/>
<circle cx="34.4351" cy="16.5752" r="4.89802" fill="#FE556F"/>
<circle cx="48.3557" cy="3.17009" r="2.83569" fill="white"/>
<circle cx="2.98511" cy="3.17012" r="2.83569" fill="white"/>
</svg>
