<svg width="53" height="53" viewBox="0 0 53 53" fill="none" xmlns="http://www.w3.org/2000/svg">
<path d="M0.991943 28.4336C0.991943 14.3386 12.4182 2.91234 26.5132 2.91234C40.6082 2.91234 52.0344 14.3386 52.0344 28.4336V30.2381H0.991943V28.4336Z" fill="white"/>
<path d="M27.2866 39.7763C27.2866 47.0374 21.4004 52.9237 14.1393 52.9237C6.87826 52.9237 0.992004 47.0374 0.992003 39.7764L0.992003 33.8472L27.2866 33.8472L27.2866 39.7763Z" fill="white"/>
<path d="M52.0344 40.5497C52.0344 47.3837 46.4944 52.9237 39.6605 52.9237C32.8266 52.9237 27.2865 47.3837 27.2865 40.5497L27.2865 33.8472L52.0344 33.8472L52.0344 40.5497Z" fill="white"/>
<circle cx="17.2327" cy="16.5752" r="4.89802" fill="#8C7DE9"/>
<circle cx="35.2781" cy="16.5752" r="4.89802" fill="#8C7DE9"/>
<circle cx="49.1987" cy="3.17011" r="2.83569" fill="white"/>
<circle cx="3.82813" cy="3.17011" r="2.83569" fill="white"/>
</svg>
