<svg width="14" height="14" viewBox="0 0 14 14" fill="none" xmlns="http://www.w3.org/2000/svg">
<path d="M7.00031 0C3.13455 0 0 3.13393 0 7C0 10.8661 3.13424 14 7.00031 14C10.8667 14 14.0006 10.8661 14.0006 7C14.0006 3.13393 10.8667 0 7.00031 0ZM7.00031 2.09308C8.27946 2.09308 9.31601 3.12994 9.31601 4.40848C9.31601 5.68733 8.27946 6.72387 7.00031 6.72387C5.72177 6.72387 4.68522 5.68733 4.68522 4.40848C4.68522 3.12994 5.72177 2.09308 7.00031 2.09308ZM6.99877 12.1698C5.723 12.1698 4.55454 11.7052 3.65328 10.9362C3.43374 10.7489 3.30705 10.4743 3.30705 10.1862C3.30705 8.88952 4.35651 7.85175 5.6535 7.85175H8.34773C9.64503 7.85175 10.6905 8.88952 10.6905 10.1862C10.6905 10.4746 10.5644 10.7486 10.3446 10.9359C9.44362 11.7052 8.27485 12.1698 6.99877 12.1698Z" fill="#07003B"/>
</svg>
